<svg xmlns="http://www.w3.org/2000/svg" width="512" height="512" viewBox="0 0 512 512">
  <defs>
    <linearGradient id="sky" x1="0" y1="0" x2="0" y2="1">
      <stop offset="0" stop-color="#2c3d1f"/>
      <stop offset="1" stop-color="#1a2413"/>
    </linearGradient>
    <linearGradient id="beer" x1="0" y1="0" x2="0" y2="1">
      <stop offset="0" stop-color="#ffcf5c"/>
      <stop offset="1" stop-color="#e0982b"/>
    </linearGradient>
  </defs>
  <rect width="512" height="512" rx="112" fill="url(#sky)"/>
  <path d="M0 372 C 120 330 200 400 300 356 C 380 322 460 372 512 348 L512 512 L0 512 Z" fill="#3a5226"/>
  <path d="M0 420 C 140 388 260 452 360 416 C 430 392 470 420 512 408 L512 512 L0 512 Z" fill="#2c3d1f"/>
  <g transform="translate(148 96)">
    <rect x="0" y="40" width="150" height="230" rx="26" fill="url(#beer)" stroke="#6b4a1f" stroke-width="10"/>
    <rect x="0" y="40" width="150" height="60" rx="26" fill="#fff7e6" opacity="0.95"/>
    <circle cx="40" cy="70" r="24" fill="#fff" opacity="0.9"/>
    <circle cx="96" cy="58" r="30" fill="#fff" opacity="0.9"/>
    <circle cx="128" cy="82" r="20" fill="#fff" opacity="0.9"/>
    <rect x="150" y="96" width="70" height="90" rx="30" fill="none" stroke="#6b4a1f" stroke-width="22"/>
  </g>
  <g transform="translate(256 356)" stroke="#f2d98a" stroke-width="9" stroke-linecap="round" fill="none">
    <path d="M0 60 L0 -46"/>
    <path d="M0 -46 C -14 -60 -20 -78 -14 -96 C 2 -84 8 -66 0 -46"/>
    <path d="M0 -20 C -18 -34 -26 -52 -20 -72 C -2 -60 8 -40 0 -20"/>
    <path d="M0 -20 C 18 -34 26 -52 20 -72 C 2 -60 -8 -40 0 -20"/>
    <path d="M0 8 C -20 -6 -30 -24 -24 -46 C -4 -32 8 -12 0 8"/>
    <path d="M0 8 C 20 -6 30 -24 24 -46 C 4 -32 -8 -12 0 8"/>
  </g>
</svg>
